HIERARCHY
ROOT Hips
{
	OFFSET -0.001795 -0.223333 0.028219
	CHANNELS 6 Xposition Yposition Zposition Zrotation Yrotation Xrotation 
	JOINT LeftUpLeg
	{
		OFFSET 0.069520 -0.091406 -0.006815
		CHANNELS 3 Zrotation Yrotation Xrotation
		JOINT LeftLeg
		{
			OFFSET 0.034277 -0.375199 -0.004496
			CHANNELS 3 Zrotation Yrotation Xrotation
			JOINT LeftFoot
			{
				OFFSET -0.013596 -0.397961 -0.043693
				CHANNELS 3 Zrotation Yrotation Xrotation
				JOINT LeftToe
				{
					OFFSET 0.026358 -0.055791 0.119288
					CHANNELS 3 Zrotation Yrotation Xrotation
					End Site
					{
						OFFSET 0.000000 0.000000 0.000000
					}
				}
			}
		}
	}
	JOINT RightUpLeg
	{
		OFFSET -0.067670 -0.090522 -0.004320
		CHANNELS 3 Zrotation Yrotation Xrotation
		JOINT RightLeg
		{
			OFFSET -0.038290 -0.382569 -0.008850
			CHANNELS 3 Zrotation Yrotation Xrotation
			JOINT RightFoot
			{
				OFFSET 0.015774 -0.398415 -0.042312
				CHANNELS 3 Zrotation Yrotation Xrotation
				JOINT RightToe
				{
					OFFSET -0.025372 -0.048144 0.123348
					CHANNELS 3 Zrotation Yrotation Xrotation
					End Site
					{
						OFFSET 0.000000 0.000000 0.000000
					}
				}
			}
		}
	}
	JOINT Spine
	{
		OFFSET -0.002533 0.108963 -0.026696
		CHANNELS 3 Zrotation Yrotation Xrotation
		JOINT Spine1
		{
			OFFSET 0.005487 0.135180 0.001092
			CHANNELS 3 Zrotation Yrotation Xrotation
			JOINT Spine2
			{
				OFFSET 0.001457 0.052922 0.025425
				CHANNELS 3 Zrotation Yrotation Xrotation
				JOINT Neck
				{
					OFFSET -0.002778 0.213870 -0.042857
					CHANNELS 3 Zrotation Yrotation Xrotation
					JOINT Head
					{
						OFFSET 0.005152 0.064970 0.051349
						CHANNELS 3 Zrotation Yrotation Xrotation
						End Site
						{
							OFFSET 0.000000 0.000000 0.000000
						}
					}
				}
				JOINT LeftShoulder
				{
					OFFSET 0.078845 0.121749 -0.034090
					CHANNELS 3 Zrotation Yrotation Xrotation
					JOINT LeftArm
					{
						OFFSET 0.090977 0.030469 -0.008868
						CHANNELS 3 Zrotation Yrotation Xrotation
						JOINT LeftForeArm
						{
							OFFSET 0.259612 -0.012772 -0.027456
							CHANNELS 3 Zrotation Yrotation Xrotation
							JOINT LeftHand
							{
								OFFSET 0.249234 0.008986 -0.001171
								CHANNELS 3 Zrotation Yrotation Xrotation
								End Site
								{
									OFFSET 0.000000 0.000000 0.000000
								}
							}
						}
					}
				}
				JOINT RightShoulder
				{
					OFFSET -0.081759 0.118833 -0.038615
					CHANNELS 3 Zrotation Yrotation Xrotation
					JOINT RightArm
					{
						OFFSET -0.096012 0.032551 -0.009143
						CHANNELS 3 Zrotation Yrotation Xrotation
						JOINT RightForeArm
						{
							OFFSET -0.253742 -0.013329 -0.021401
							CHANNELS 3 Zrotation Yrotation Xrotation
							JOINT RightHand
							{
								OFFSET -0.255298 0.007772 -0.005559
								CHANNELS 3 Zrotation Yrotation Xrotation
								End Site
								{
									OFFSET 0.000000 0.000000 0.000000
								}
							}
						}
					}
				}
			}
		}
	}
}
MOTION
Frames: 15
Frame Time: 0.050000
0.824871 0.833598 0.246365 -176.990759 12.942535 174.580165 6.746084 -16.237125 -32.606883 -90.040322 -26.532986 66.210680 -131.648363 24.137849 155.633423 0.000000 0.000000 0.000000 20.676505 -22.186952 -40.837826 -82.692305 -24.312251 54.854851 -106.833855 -69.800398 -93.927138 0.000000 0.000000 0.000000 -14.238017 -22.983560 42.855019 3.399420 -0.848251 -36.899641 13.612463 42.760952 31.960100 10.288814 -1.887114 -44.967176 0.000000 0.000000 0.000000 18.726144 15.307827 169.939289 74.430777 -14.880460 3.409593 -33.905685 50.972930 -24.721661 0.000000 0.000000 0.000000 19.253251 -36.507584 90.674200 -17.505007 61.104553 -24.947574 -47.246268 -0.561516 1.373844 0.000000 0.000000 0.000000 
0.822034 0.835085 0.269771 -177.382487 17.857850 174.793025 7.062153 -15.931155 -32.858785 -85.829092 -26.517706 62.958223 -126.725522 24.034776 157.584625 0.000000 0.000000 0.000000 20.699578 -20.834314 -40.397352 -75.555462 -22.740159 51.356077 -115.773649 -72.882592 -83.885222 0.000000 0.000000 0.000000 -14.209939 -22.776672 43.399234 2.837509 -1.623975 -37.391507 14.748530 44.643375 32.898347 10.309328 -0.455017 -44.349508 0.000000 0.000000 0.000000 21.306394 1.952190 -152.269936 73.374237 16.168936 23.650618 -58.538794 23.684356 -22.903858 0.000000 0.000000 0.000000 23.775489 -36.253508 73.491784 7.354091 57.233858 -9.941464 -47.431188 11.352971 -2.651623 0.000000 0.000000 0.000000 
0.819867 0.834919 0.293759 -177.273732 22.163744 174.471803 7.955773 -15.661765 -33.092996 -83.955746 -25.886471 60.949583 -118.482492 22.667654 159.260986 0.000000 0.000000 0.000000 20.900913 -19.408446 -39.922555 -67.537430 -20.999867 48.968613 161.858016 -77.350276 -1.895813 0.000000 0.000000 0.000000 -16.608826 -23.090853 45.203354 3.921673 -0.759591 -36.523725 13.558711 45.000306 31.714640 11.870535 2.986927 -44.790067 0.000000 0.000000 0.000000 14.430233 -8.072053 -111.833988 52.441825 46.984706 29.674776 -60.004660 -12.512325 -1.590220 0.000000 0.000000 0.000000 27.599223 -33.060043 57.582742 21.267808 47.816298 -4.357110 -44.641141 22.415850 -6.839993 0.000000 0.000000 0.000000 
0.818456 0.834684 0.318818 -177.512599 26.578792 173.943756 7.409505 -14.722909 -32.531061 -80.534392 -24.842937 59.756797 -110.836028 22.083240 162.207349 0.000000 0.000000 0.000000 19.488058 -17.804062 -38.261125 -56.539983 -19.360038 46.738092 125.505673 -60.793854 32.069960 0.000000 0.000000 0.000000 -17.098456 -22.943416 45.995420 3.666763 -1.440160 -37.224181 14.788895 45.639563 34.212325 13.516163 4.198824 -43.092638 0.000000 0.000000 0.000000 8.024787 -12.209715 -91.210854 25.563271 54.592459 16.627063 -54.238975 -31.004209 8.164153 0.000000 0.000000 0.000000 28.869636 -32.517112 48.859319 27.072009 42.033219 -2.514347 -43.362903 29.639640 -8.541766 0.000000 0.000000 0.000000 
0.817265 0.835487 0.344072 -177.793222 31.016466 173.867915 9.508272 -14.706635 -32.966038 -76.916005 -24.601650 55.760948 -102.225016 19.989683 164.473022 0.000000 0.000000 0.000000 18.930851 -16.805190 -37.771151 -47.050826 -17.920574 44.557792 111.007234 -44.550879 41.668807 0.000000 0.000000 0.000000 -18.316915 -21.998435 46.219893 3.737161 -0.564087 -36.078906 11.994553 43.701993 32.086304 14.958597 6.216970 -43.507573 0.000000 0.000000 0.000000 0.616280 -12.495130 -69.411868 -4.562060 49.590317 -1.008448 -39.153589 -45.166239 9.938432 0.000000 0.000000 0.000000 30.635860 -30.353420 39.596522 30.760107 34.005082 -3.466506 -39.297610 37.167187 -10.127489 0.000000 0.000000 0.000000 
0.815814 0.837548 0.368293 -177.855950 36.987359 173.517955 11.320370 -13.870815 -32.411861 -73.216903 -23.163412 52.960361 -85.589737 14.907425 167.450729 0.000000 0.000000 0.000000 18.094489 -14.650357 -36.088758 -37.121935 -16.971261 42.288678 99.810766 -29.380436 45.671100 0.000000 0.000000 0.000000 -16.377128 -20.100481 44.304056 2.376877 -0.886491 -36.247901 10.912326 40.840780 33.893268 16.191746 7.600234 -42.632348 0.000000 0.000000 0.000000 -3.371179 -11.269493 -58.583387 -15.268565 42.379764 -5.391416 -26.498882 -50.945437 6.325220 0.000000 0.000000 0.000000 31.208631 -29.240338 34.293869 32.465604 28.734744 -4.138702 -36.376629 41.937415 -10.096989 0.000000 0.000000 0.000000 
0.813962 0.840220 0.390277 -177.580650 42.432362 173.679867 12.328508 -12.851486 -31.483318 -65.758685 -21.446562 49.789871 -75.879317 10.158088 170.760247 0.000000 0.000000 0.000000 15.433351 -12.830609 -33.530707 -24.225268 -17.797779 39.448972 88.658815 -15.846602 46.870581 0.000000 0.000000 0.000000 -14.612333 -18.167294 42.521801 1.047540 0.169165 -34.296080 7.555327 37.711258 31.871281 17.311810 7.996236 -42.522674 0.000000 0.000000 0.000000 -5.357208 -10.952683 -46.109333 -22.522526 36.079459 -7.870991 -11.550148 -52.101888 -1.254450 0.000000 0.000000 0.000000 32.520603 -28.224049 28.006287 32.416004 20.594788 -6.104921 -30.701062 45.010400 -8.829656 0.000000 0.000000 0.000000 
0.811529 0.840146 0.409691 -177.616810 47.452756 173.896365 14.305593 -12.496389 -31.217500 -61.615737 -20.206090 46.039324 -71.334689 7.670291 170.438466 0.000000 0.000000 0.000000 13.170316 -12.267087 -32.606641 -25.279744 -19.444187 44.196983 54.716176 21.952947 32.316832 0.000000 0.000000 0.000000 -13.196948 -16.224146 40.261002 -0.635904 0.137375 -33.307234 7.136463 33.857044 31.730260 16.363416 8.532244 -41.715380 0.000000 0.000000 0.000000 -7.043398 -8.053298 -41.924313 -24.665555 32.701203 -8.019222 -6.080763 -53.271869 -3.594059 0.000000 0.000000 0.000000 31.744219 -28.409242 22.197910 31.690651 14.910471 -6.433104 -24.599268 47.554186 -5.979310 0.000000 0.000000 0.000000 
0.807902 0.835974 0.427550 -178.489069 51.800241 173.929327 14.541957 -12.174830 -31.372042 -55.660971 -18.552560 43.848806 -68.867891 4.985366 170.912495 0.000000 0.000000 0.000000 9.581489 -11.417724 -30.151476 -34.201188 -20.222963 52.798766 -12.004178 -21.442155 3.475641 0.000000 0.000000 0.000000 -11.567601 -14.627117 38.421644 -1.043348 -0.183126 -34.391938 5.190569 32.326902 32.021935 19.135037 7.884041 -40.867118 0.000000 0.000000 0.000000 -7.308302 -6.582456 -38.203736 -25.772516 30.707466 -8.256185 0.169610 -51.998162 -6.868683 0.000000 0.000000 0.000000 34.582164 -29.562535 20.455507 28.334687 12.849407 -7.534233 -22.878157 46.665528 -5.704198 0.000000 0.000000 0.000000 
0.802970 0.831940 0.444354 -179.318367 55.099023 174.161916 14.221684 -12.189343 -32.082413 -50.273428 -17.106422 42.724787 -67.356156 2.761872 171.263956 0.000000 0.000000 0.000000 6.239627 -10.171513 -26.771314 -54.338036 -17.237462 63.239327 0.708854 1.107372 2.490877 0.000000 0.000000 0.000000 -9.925874 -13.740440 37.269358 -3.225168 -1.168029 -35.257868 5.538446 30.821636 32.432145 20.341605 7.638125 -39.724835 0.000000 0.000000 0.000000 -7.904767 -6.425608 -35.975760 -26.249101 30.097260 -8.269280 8.959937 -51.103279 -10.980076 0.000000 0.000000 0.000000 37.301517 -29.909265 20.284383 26.065194 12.899452 -8.270879 -24.878323 42.641115 -6.332758 0.000000 0.000000 0.000000 
0.795867 0.829903 0.460689 179.496919 56.939119 173.698335 13.455994 -12.218267 -32.581227 -45.722818 -16.233921 42.085369 -66.231023 0.647624 172.168996 0.000000 0.000000 0.000000 2.443182 -9.024306 -22.241932 -63.109224 -15.654276 64.860742 37.953027 39.356928 10.986706 0.000000 0.000000 0.000000 -10.144533 -13.753162 37.616192 -1.976588 -2.237010 -38.245044 6.649331 31.220293 35.697949 19.446392 8.550889 -39.549939 0.000000 0.000000 0.000000 -9.025438 -5.091328 -37.947643 -25.631459 29.274584 -7.539571 7.365506 -49.516403 -9.387703 0.000000 0.000000 0.000000 38.337615 -30.886122 20.065514 25.834862 14.944053 -8.373662 -26.086151 39.853212 -5.857688 0.000000 0.000000 0.000000 
0.786004 0.830389 0.475584 -179.777045 60.977411 174.296079 14.316781 -12.074040 -32.948275 -43.276399 -14.920299 42.402986 -56.966473 -3.529983 168.255722 0.000000 0.000000 0.000000 2.555804 -7.200720 -20.584379 -62.996549 -14.766616 63.438676 53.455253 52.616980 16.838495 0.000000 0.000000 0.000000 -10.201719 -13.782215 38.197458 -0.844317 -2.041262 -38.765094 6.470306 33.273698 35.617498 19.242055 8.503530 -39.493791 0.000000 0.000000 0.000000 -8.835561 -3.824405 -35.050957 -29.558897 26.989648 -8.801382 11.648486 -47.249467 -11.521167 0.000000 0.000000 0.000000 38.070408 -29.823504 19.347591 28.174026 14.228365 -8.524962 -26.397575 38.244533 -5.311714 0.000000 0.000000 0.000000 
0.773928 0.836084 0.487020 -178.469026 63.961665 174.994146 15.449224 -12.102044 -33.498851 -43.214350 -14.041332 43.398002 -47.292166 -6.161823 162.802991 0.000000 0.000000 0.000000 3.094774 -6.827663 -21.306083 -56.852314 -14.665093 61.429072 47.585161 49.587431 12.534410 0.000000 0.000000 0.000000 -11.271889 -13.883362 39.191631 0.907389 -1.492544 -38.725179 7.592307 33.616531 37.170810 16.010464 9.957581 -41.882697 0.000000 0.000000 0.000000 -11.424889 -1.659777 -36.855728 -31.658890 25.849145 -8.701511 10.164673 -47.131456 -10.195761 0.000000 0.000000 0.000000 36.087802 -28.827919 17.291761 30.941881 15.368696 -7.679223 -25.383666 37.771774 -4.035176 0.000000 0.000000 0.000000 
0.761739 0.842568 0.494010 -177.422023 66.613801 176.308718 17.198806 -12.719944 -35.052884 -47.848127 -13.398440 44.057834 -36.596362 -4.901940 156.500036 0.000000 0.000000 0.000000 3.705098 -7.187314 -23.353795 -52.328153 -13.656215 58.087524 50.764857 46.125058 18.590461 0.000000 0.000000 0.000000 -10.349758 -13.179884 38.214728 0.245279 -0.460164 -36.539812 6.300844 32.656384 35.409548 15.577767 9.640547 -41.198148 0.000000 0.000000 0.000000 -12.474982 -1.772619 -35.582675 -33.078115 24.395143 -8.514538 10.498704 -48.825319 -10.733712 0.000000 0.000000 0.000000 34.327035 -28.031183 15.165344 33.801689 13.963660 -7.389617 -22.994169 37.520269 -2.629471 0.000000 0.000000 0.000000 
0.749913 0.850394 0.497013 -177.298327 69.459351 176.905206 17.427465 -12.927949 -36.090483 -58.014364 -12.583023 47.358598 36.272650 2.962910 121.315996 0.000000 0.000000 0.000000 3.974422 -7.036716 -24.107976 -49.317183 -12.510559 55.045980 53.282992 45.564536 21.406675 0.000000 0.000000 0.000000 -10.229020 -12.495827 37.647572 -0.299111 -0.170294 -35.852357 6.704012 32.565204 35.333303 17.100427 9.242937 -42.272840 0.000000 0.000000 0.000000 -13.320957 -1.662769 -35.285923 -34.204162 24.449699 -8.751738 7.667040 -53.075288 -10.125996 0.000000 0.000000 0.000000 34.131453 -27.610507 14.549347 35.306291 13.839941 -7.455957 -22.061336 36.589390 -2.061248 0.000000 0.000000 0.000000 
